%
M48
M72
T01C0.0150
T02C0.0217
T03C0.0236
T04C0.0315
T05C0.0354
T06C0.0400
T07C0.0433
T08C0.0472
T09C0.0630
T10C0.0787
%
T01
X10460Y15000
X10910Y14100
X4880Y3750
X5600Y4470
X12170Y13290
X12170Y11490
X3080Y15270
X3530Y14640
X8300Y27870
X7850Y27420
X6590Y23910
X18290Y17790
X16040Y22290
X11900Y27060
X11000Y27060
X9920Y28230
X6140Y21750
X6680Y21660
X11180Y18330
X11180Y19320
X10460Y19500
X9470Y20310
X9200Y21390
X6590Y14910
X3350Y2040
X8030Y8070
X14690Y1770
X15410Y23370
X7760Y33450
X4700Y24720
X9020Y30390
X9650Y28500
X12800Y23550
X6950Y20040
X14420Y23100
X11810Y21030
X10370Y19860
X8210Y18780
X10910Y19050
X11000Y19770
X9110Y29130
X9110Y27240
X10190Y23280
X6590Y12030
X11270Y20130
X11270Y21660
X10640Y28320
X12170Y21300
X12170Y16800
X8390Y30750
X7220Y13290
X1190Y1500
X5150Y7080
X8570Y13560
X15590Y13020
X16490Y15360
X11900Y20310
X3260Y13110
X2720Y17250
X6680Y13290
X18020Y13110
X15770Y23460
X12440Y13020
X830Y13020
X1190Y22470
X8660Y14100
X10280Y15810
X8840Y18240
X7670Y20220
X2450Y22020
X8030Y18060
X7580Y20940
X8840Y22200
X9110Y37680
X11540Y37680
X8660Y33090
X8750Y30750
X8930Y21660
X11810Y21390
X6950Y13560
X13970Y4920
X12260Y10050
X11180Y10050
X7850Y11670
X10010Y24990
X7220Y12570
X17930Y1230
X14240Y6990
X11720Y7620
X17930Y510
X16400Y2040
X10370Y21480
X13610Y24900
X12890Y33360
X11450Y33180
X10730Y33180
X13250Y33270
X9470Y7890
X10820Y7890
X5600Y23730
X12710Y34440
X7760Y34440
X6860Y27060
X8750Y17520
X5330Y26610
X11900Y24540
X10550Y24540
X10010Y24540
X7940Y25350
X7490Y25800
X6140Y25800
T02
X14975Y24958
X16088Y23845
T03
X6600Y38600
X7600Y38600
X8100Y38600
X8600Y38600
X9100Y38600
X9600Y38600
X10100Y38600
X10600Y38600
X11100Y38600
X11600Y38600
X12100Y38600
X12600Y38600
X13100Y38600
X13600Y38350
X13850Y37850
X13850Y37350
X13850Y36850
X5850Y38350
X5600Y37850
X5600Y37350
X5600Y36850
T04
X11280Y35788
X8130Y35788
X7043Y23300
X12357Y23300
T05
X3009Y23667
X4191Y24933
T06
X8728Y23738
X8728Y22738
X9728Y23738
X9728Y22738
X10728Y23738
X10728Y22738
X9700Y18300
X9700Y17300
X9700Y16300
X9700Y15300
X9700Y14300
X9700Y13300
X9700Y12300
X9700Y11300
X9700Y10300
X4600Y34350
X4600Y35350
X14850Y35350
X14850Y34350
X13100Y18850
X13100Y17850
X6350Y18800
X6350Y17800
T07
X9700Y27300
X9700Y19426
T08
X8716Y20839
X8716Y25761
X10684Y20839
X10684Y25761
T09
X7928Y23300
X11472Y23300
T10
X2038Y19600
X17413Y19600
X4288Y5413
X15163Y5413
M30
