G75*
%MOIN*%
%OFA0B0*%
%FSLAX24Y24*%
%IPPOS*%
%LPD*%
%AMOC8*
5,1,8,0,0,1.08239X$1,22.5*
%
%ADD10C,0.0000*%
%ADD11R,0.0315X0.0354*%
%ADD12R,0.0315X0.0315*%
%ADD13R,0.0780X0.0220*%
%ADD14R,0.0394X0.0433*%
%ADD15R,0.0630X0.1378*%
%ADD16R,0.0906X0.0630*%
%ADD17R,0.0630X0.0906*%
%ADD18R,0.0433X0.0394*%
%ADD19R,0.0260X0.0800*%
%ADD20R,0.0472X0.0217*%
D10*
X000100Y000600D02*
X000100Y001600D01*
X000128Y001644D01*
X000160Y001685D01*
X000194Y001724D01*
X000231Y001761D01*
X000270Y001795D01*
X000312Y001826D01*
X000356Y001854D01*
X000402Y001878D01*
X000449Y001900D01*
X000498Y001918D01*
X000548Y001932D01*
X000599Y001943D01*
X000651Y001950D01*
X000703Y001954D01*
X000755Y001953D01*
X000806Y001949D01*
X000858Y001942D01*
X000909Y001930D01*
X000959Y001916D01*
X001007Y001897D01*
X001055Y001875D01*
X001100Y001850D01*
X002100Y002100D01*
X002850Y002850D01*
X002600Y006350D01*
X005850Y010600D01*
X005600Y021850D01*
X005100Y022350D01*
X004350Y022350D01*
X003850Y021850D01*
X003600Y020600D01*
X003605Y020573D01*
X003606Y020547D01*
X003604Y020520D01*
X003598Y020493D01*
X003589Y020468D01*
X003577Y020444D01*
X003561Y020422D01*
X003543Y020402D01*
X003523Y020384D01*
X003500Y020370D01*
X003476Y020358D01*
X003450Y020350D01*
X003450Y019100D01*
X003445Y019073D01*
X003444Y019047D01*
X003446Y019020D01*
X003452Y018993D01*
X003461Y018968D01*
X003473Y018944D01*
X003489Y018922D01*
X003507Y018902D01*
X003527Y018884D01*
X003550Y018870D01*
X003574Y018858D01*
X003600Y018850D01*
X003850Y014850D01*
X004350Y014350D01*
X004350Y012350D01*
X004348Y012306D01*
X004342Y012263D01*
X004333Y012221D01*
X004320Y012179D01*
X004303Y012139D01*
X004283Y012100D01*
X004260Y012063D01*
X004233Y012029D01*
X004204Y011996D01*
X004171Y011967D01*
X004137Y011940D01*
X004100Y011917D01*
X004061Y011897D01*
X004021Y011880D01*
X003979Y011867D01*
X003937Y011858D01*
X003894Y011852D01*
X003850Y011850D01*
X003350Y011850D01*
X003306Y011852D01*
X003263Y011858D01*
X003221Y011867D01*
X003179Y011880D01*
X003139Y011897D01*
X003100Y011917D01*
X003063Y011940D01*
X003029Y011967D01*
X002996Y011996D01*
X002967Y012029D01*
X002940Y012063D01*
X002917Y012100D01*
X002897Y012139D01*
X002880Y012179D01*
X002867Y012221D01*
X002858Y012263D01*
X002852Y012306D01*
X002850Y012350D01*
X002850Y013350D01*
X002350Y013850D02*
X002306Y013848D01*
X002263Y013842D01*
X002221Y013833D01*
X002179Y013820D01*
X002139Y013803D01*
X002100Y013783D01*
X002063Y013760D01*
X002029Y013733D01*
X001996Y013704D01*
X001967Y013671D01*
X001940Y013637D01*
X001917Y013600D01*
X001897Y013561D01*
X001880Y013521D01*
X001867Y013479D01*
X001858Y013437D01*
X001852Y013394D01*
X001850Y013350D01*
X001850Y012350D01*
X001848Y012306D01*
X001842Y012263D01*
X001833Y012221D01*
X001820Y012179D01*
X001803Y012139D01*
X001783Y012100D01*
X001760Y012063D01*
X001733Y012029D01*
X001704Y011996D01*
X001671Y011967D01*
X001637Y011940D01*
X001600Y011917D01*
X001561Y011897D01*
X001521Y011880D01*
X001479Y011867D01*
X001437Y011858D01*
X001394Y011852D01*
X001350Y011850D01*
X000850Y011850D01*
X000806Y011852D01*
X000763Y011858D01*
X000721Y011867D01*
X000679Y011880D01*
X000639Y011897D01*
X000600Y011917D01*
X000563Y011940D01*
X000529Y011967D01*
X000496Y011996D01*
X000467Y012029D01*
X000440Y012063D01*
X000417Y012100D01*
X000397Y012139D01*
X000380Y012179D01*
X000367Y012221D01*
X000358Y012263D01*
X000352Y012306D01*
X000350Y012350D01*
X000350Y014350D01*
X000850Y014850D01*
X000600Y018850D01*
X000626Y018858D01*
X000650Y018870D01*
X000673Y018884D01*
X000693Y018902D01*
X000711Y018922D01*
X000727Y018944D01*
X000739Y018968D01*
X000748Y018993D01*
X000754Y019020D01*
X000756Y019047D01*
X000755Y019073D01*
X000750Y019100D01*
X000750Y020350D01*
X000724Y020358D01*
X000700Y020370D01*
X000677Y020384D01*
X000657Y020402D01*
X000639Y020422D01*
X000623Y020444D01*
X000611Y020468D01*
X000602Y020493D01*
X000596Y020520D01*
X000594Y020547D01*
X000595Y020573D01*
X000600Y020600D01*
X000850Y023850D01*
X004100Y027350D01*
X006100Y027350D01*
X006187Y027352D01*
X006274Y027358D01*
X006361Y027367D01*
X006447Y027380D01*
X006533Y027397D01*
X006618Y027418D01*
X006701Y027443D01*
X006784Y027471D01*
X006865Y027502D01*
X006945Y027537D01*
X007023Y027576D01*
X007100Y027618D01*
X007175Y027663D01*
X007247Y027712D01*
X007318Y027763D01*
X007386Y027818D01*
X007451Y027875D01*
X007514Y027936D01*
X007575Y027999D01*
X007632Y028064D01*
X007687Y028132D01*
X007738Y028203D01*
X007787Y028275D01*
X007832Y028350D01*
X007874Y028427D01*
X007913Y028505D01*
X007948Y028585D01*
X007979Y028666D01*
X008007Y028749D01*
X008032Y028832D01*
X008053Y028917D01*
X008070Y029003D01*
X008083Y029089D01*
X008092Y029176D01*
X008098Y029263D01*
X008100Y029350D01*
X006600Y031100D02*
X006100Y031100D01*
X006040Y031102D01*
X005979Y031107D01*
X005920Y031116D01*
X005861Y031129D01*
X005802Y031145D01*
X005745Y031165D01*
X005690Y031188D01*
X005635Y031215D01*
X005583Y031244D01*
X005532Y031277D01*
X005483Y031313D01*
X005437Y031351D01*
X005393Y031393D01*
X005351Y031437D01*
X005313Y031483D01*
X005277Y031532D01*
X005244Y031583D01*
X005215Y031635D01*
X005188Y031690D01*
X005165Y031745D01*
X005145Y031802D01*
X005129Y031861D01*
X005116Y031920D01*
X005107Y031979D01*
X005102Y032040D01*
X005100Y032100D01*
X005100Y033100D01*
X005098Y033144D01*
X005092Y033187D01*
X005083Y033229D01*
X005070Y033271D01*
X005053Y033311D01*
X005033Y033350D01*
X005010Y033387D01*
X004983Y033421D01*
X004954Y033454D01*
X004921Y033483D01*
X004887Y033510D01*
X004850Y033533D01*
X004811Y033553D01*
X004771Y033570D01*
X004729Y033583D01*
X004687Y033592D01*
X004644Y033598D01*
X004600Y033600D01*
X004350Y033600D01*
X004306Y033602D01*
X004263Y033608D01*
X004221Y033617D01*
X004179Y033630D01*
X004139Y033647D01*
X004100Y033667D01*
X004063Y033690D01*
X004029Y033717D01*
X003996Y033746D01*
X003967Y033779D01*
X003940Y033813D01*
X003917Y033850D01*
X003897Y033889D01*
X003880Y033929D01*
X003867Y033971D01*
X003858Y034013D01*
X003852Y034056D01*
X003850Y034100D01*
X003850Y035600D01*
X003852Y035644D01*
X003858Y035687D01*
X003867Y035729D01*
X003880Y035771D01*
X003897Y035811D01*
X003917Y035850D01*
X003940Y035887D01*
X003967Y035921D01*
X003996Y035954D01*
X004029Y035983D01*
X004063Y036010D01*
X004100Y036033D01*
X004139Y036053D01*
X004179Y036070D01*
X004221Y036083D01*
X004263Y036092D01*
X004306Y036098D01*
X004350Y036100D01*
X004600Y036100D01*
X004644Y036102D01*
X004687Y036108D01*
X004729Y036117D01*
X004771Y036130D01*
X004811Y036147D01*
X004850Y036167D01*
X004887Y036190D01*
X004921Y036217D01*
X004954Y036246D01*
X004983Y036279D01*
X005010Y036313D01*
X005033Y036350D01*
X005053Y036389D01*
X005070Y036429D01*
X005083Y036471D01*
X005092Y036513D01*
X005098Y036556D01*
X005100Y036600D01*
X005100Y038100D01*
X005102Y038160D01*
X005107Y038221D01*
X005116Y038280D01*
X005129Y038339D01*
X005145Y038398D01*
X005165Y038455D01*
X005188Y038510D01*
X005215Y038565D01*
X005244Y038617D01*
X005277Y038668D01*
X005313Y038717D01*
X005351Y038763D01*
X005393Y038807D01*
X005437Y038849D01*
X005483Y038887D01*
X005532Y038923D01*
X005583Y038956D01*
X005635Y038985D01*
X005690Y039012D01*
X005745Y039035D01*
X005802Y039055D01*
X005861Y039071D01*
X005920Y039084D01*
X005979Y039093D01*
X006040Y039098D01*
X006100Y039100D01*
X013350Y039100D01*
X013410Y039098D01*
X013471Y039093D01*
X013530Y039084D01*
X013589Y039071D01*
X013648Y039055D01*
X013705Y039035D01*
X013760Y039012D01*
X013815Y038985D01*
X013867Y038956D01*
X013918Y038923D01*
X013967Y038887D01*
X014013Y038849D01*
X014057Y038807D01*
X014099Y038763D01*
X014137Y038717D01*
X014173Y038668D01*
X014206Y038617D01*
X014235Y038565D01*
X014262Y038510D01*
X014285Y038455D01*
X014305Y038398D01*
X014321Y038339D01*
X014334Y038280D01*
X014343Y038221D01*
X014348Y038160D01*
X014350Y038100D01*
X014350Y036600D01*
X014352Y036556D01*
X014358Y036513D01*
X014367Y036471D01*
X014380Y036429D01*
X014397Y036389D01*
X014417Y036350D01*
X014440Y036313D01*
X014467Y036279D01*
X014496Y036246D01*
X014529Y036217D01*
X014563Y036190D01*
X014600Y036167D01*
X014639Y036147D01*
X014679Y036130D01*
X014721Y036117D01*
X014763Y036108D01*
X014806Y036102D01*
X014850Y036100D01*
X015100Y036100D01*
X015144Y036098D01*
X015187Y036092D01*
X015229Y036083D01*
X015271Y036070D01*
X015311Y036053D01*
X015350Y036033D01*
X015387Y036010D01*
X015421Y035983D01*
X015454Y035954D01*
X015483Y035921D01*
X015510Y035887D01*
X015533Y035850D01*
X015553Y035811D01*
X015570Y035771D01*
X015583Y035729D01*
X015592Y035687D01*
X015598Y035644D01*
X015600Y035600D01*
X015600Y034100D01*
X015598Y034056D01*
X015592Y034013D01*
X015583Y033971D01*
X015570Y033929D01*
X015553Y033889D01*
X015533Y033850D01*
X015510Y033813D01*
X015483Y033779D01*
X015454Y033746D01*
X015421Y033717D01*
X015387Y033690D01*
X015350Y033667D01*
X015311Y033647D01*
X015271Y033630D01*
X015229Y033617D01*
X015187Y033608D01*
X015144Y033602D01*
X015100Y033600D01*
X014850Y033600D01*
X014806Y033598D01*
X014763Y033592D01*
X014721Y033583D01*
X014679Y033570D01*
X014639Y033553D01*
X014600Y033533D01*
X014563Y033510D01*
X014529Y033483D01*
X014496Y033454D01*
X014467Y033421D01*
X014440Y033387D01*
X014417Y033350D01*
X014397Y033311D01*
X014380Y033271D01*
X014367Y033229D01*
X014358Y033187D01*
X014352Y033144D01*
X014350Y033100D01*
X014350Y032100D01*
X013600Y031100D02*
X012850Y031100D01*
X013600Y031100D02*
X013657Y031110D01*
X013713Y031124D01*
X013768Y031141D01*
X013822Y031162D01*
X013875Y031187D01*
X013925Y031214D01*
X013974Y031245D01*
X014021Y031280D01*
X014065Y031317D01*
X014107Y031357D01*
X014146Y031399D01*
X014182Y031445D01*
X014215Y031492D01*
X014245Y031541D01*
X014272Y031593D01*
X014295Y031646D01*
X014315Y031700D01*
X014331Y031756D01*
X014344Y031812D01*
X014353Y031869D01*
X014358Y031927D01*
X014359Y031985D01*
X014356Y032043D01*
X014350Y032100D01*
X011350Y029600D02*
X011346Y029510D01*
X011347Y029419D01*
X011351Y029329D01*
X011359Y029239D01*
X011371Y029149D01*
X011387Y029060D01*
X011406Y028972D01*
X011429Y028885D01*
X011456Y028799D01*
X011487Y028713D01*
X011521Y028630D01*
X011559Y028548D01*
X011600Y028467D01*
X011644Y028388D01*
X011692Y028312D01*
X011743Y028237D01*
X011797Y028165D01*
X011854Y028095D01*
X011914Y028027D01*
X011977Y027962D01*
X012043Y027900D01*
X012111Y027841D01*
X012181Y027784D01*
X012254Y027731D01*
X012329Y027681D01*
X012407Y027634D01*
X012486Y027590D01*
X012567Y027550D01*
X012649Y027513D01*
X012733Y027479D01*
X012818Y027450D01*
X012905Y027424D01*
X012993Y027401D01*
X013081Y027383D01*
X013170Y027368D01*
X013260Y027357D01*
X013350Y027350D01*
X015350Y027350D01*
X018600Y023850D01*
X018850Y020600D01*
X018855Y020573D01*
X018856Y020547D01*
X018854Y020520D01*
X018848Y020493D01*
X018839Y020468D01*
X018827Y020444D01*
X018811Y020422D01*
X018793Y020402D01*
X018773Y020384D01*
X018750Y020370D01*
X018726Y020358D01*
X018700Y020350D01*
X018700Y019100D01*
X018695Y019073D01*
X018694Y019047D01*
X018696Y019020D01*
X018702Y018993D01*
X018711Y018968D01*
X018723Y018944D01*
X018739Y018922D01*
X018757Y018902D01*
X018777Y018884D01*
X018800Y018870D01*
X018824Y018858D01*
X018850Y018850D01*
X018600Y014850D01*
X019100Y014350D01*
X019100Y012350D01*
X019098Y012306D01*
X019092Y012263D01*
X019083Y012221D01*
X019070Y012179D01*
X019053Y012139D01*
X019033Y012100D01*
X019010Y012063D01*
X018983Y012029D01*
X018954Y011996D01*
X018921Y011967D01*
X018887Y011940D01*
X018850Y011917D01*
X018811Y011897D01*
X018771Y011880D01*
X018729Y011867D01*
X018687Y011858D01*
X018644Y011852D01*
X018600Y011850D01*
X018100Y011850D01*
X018056Y011852D01*
X018013Y011858D01*
X017971Y011867D01*
X017929Y011880D01*
X017889Y011897D01*
X017850Y011917D01*
X017813Y011940D01*
X017779Y011967D01*
X017746Y011996D01*
X017717Y012029D01*
X017690Y012063D01*
X017667Y012100D01*
X017647Y012139D01*
X017630Y012179D01*
X017617Y012221D01*
X017608Y012263D01*
X017602Y012306D01*
X017600Y012350D01*
X017600Y013350D01*
X017598Y013394D01*
X017592Y013437D01*
X017583Y013479D01*
X017570Y013521D01*
X017553Y013561D01*
X017533Y013600D01*
X017510Y013637D01*
X017483Y013671D01*
X017454Y013704D01*
X017421Y013733D01*
X017387Y013760D01*
X017350Y013783D01*
X017311Y013803D01*
X017271Y013820D01*
X017229Y013833D01*
X017187Y013842D01*
X017144Y013848D01*
X017100Y013850D01*
X017056Y013848D01*
X017013Y013842D01*
X016971Y013833D01*
X016929Y013820D01*
X016889Y013803D01*
X016850Y013783D01*
X016813Y013760D01*
X016779Y013733D01*
X016746Y013704D01*
X016717Y013671D01*
X016690Y013637D01*
X016667Y013600D01*
X016647Y013561D01*
X016630Y013521D01*
X016617Y013479D01*
X016608Y013437D01*
X016602Y013394D01*
X016600Y013350D01*
X016600Y012350D01*
X016598Y012306D01*
X016592Y012263D01*
X016583Y012221D01*
X016570Y012179D01*
X016553Y012139D01*
X016533Y012100D01*
X016510Y012063D01*
X016483Y012029D01*
X016454Y011996D01*
X016421Y011967D01*
X016387Y011940D01*
X016350Y011917D01*
X016311Y011897D01*
X016271Y011880D01*
X016229Y011867D01*
X016187Y011858D01*
X016144Y011852D01*
X016100Y011850D01*
X015600Y011850D01*
X015556Y011852D01*
X015513Y011858D01*
X015471Y011867D01*
X015429Y011880D01*
X015389Y011897D01*
X015350Y011917D01*
X015313Y011940D01*
X015279Y011967D01*
X015246Y011996D01*
X015217Y012029D01*
X015190Y012063D01*
X015167Y012100D01*
X015147Y012139D01*
X015130Y012179D01*
X015117Y012221D01*
X015108Y012263D01*
X015102Y012306D01*
X015100Y012350D01*
X015100Y014350D01*
X015600Y014850D01*
X015850Y018850D01*
X015876Y018858D01*
X015900Y018870D01*
X015923Y018884D01*
X015943Y018902D01*
X015961Y018922D01*
X015977Y018944D01*
X015989Y018968D01*
X015998Y018993D01*
X016004Y019020D01*
X016006Y019047D01*
X016005Y019073D01*
X016000Y019100D01*
X016000Y020350D01*
X015974Y020358D01*
X015950Y020370D01*
X015927Y020384D01*
X015907Y020402D01*
X015889Y020422D01*
X015873Y020444D01*
X015861Y020468D01*
X015852Y020493D01*
X015846Y020520D01*
X015844Y020547D01*
X015845Y020573D01*
X015850Y020600D01*
X015600Y021850D01*
X015100Y022350D01*
X014350Y022350D01*
X013850Y021850D01*
X013600Y010600D01*
X016850Y006350D01*
X016600Y002850D01*
X017350Y002100D01*
X018350Y001600D01*
X018387Y001634D01*
X018426Y001666D01*
X018468Y001695D01*
X018511Y001721D01*
X018556Y001743D01*
X018603Y001762D01*
X018651Y001778D01*
X018700Y001791D01*
X018749Y001800D01*
X018800Y001805D01*
X018850Y001807D01*
X018900Y001805D01*
X018951Y001800D01*
X019000Y001791D01*
X019049Y001778D01*
X019097Y001762D01*
X019144Y001743D01*
X019189Y001721D01*
X019232Y001695D01*
X019274Y001666D01*
X019313Y001634D01*
X019350Y001600D01*
X019350Y000600D01*
X019348Y000556D01*
X019342Y000513D01*
X019333Y000471D01*
X019320Y000429D01*
X019303Y000389D01*
X019283Y000350D01*
X019260Y000313D01*
X019233Y000279D01*
X019204Y000246D01*
X019171Y000217D01*
X019137Y000190D01*
X019100Y000167D01*
X019061Y000147D01*
X019021Y000130D01*
X018979Y000117D01*
X018937Y000108D01*
X018894Y000102D01*
X018850Y000100D01*
X014350Y000100D01*
X013350Y001100D01*
X013350Y002100D01*
X013352Y002130D01*
X013357Y002160D01*
X013366Y002189D01*
X013379Y002216D01*
X013394Y002242D01*
X013413Y002266D01*
X013434Y002287D01*
X013458Y002306D01*
X013484Y002321D01*
X013511Y002334D01*
X013540Y002343D01*
X013570Y002348D01*
X013600Y002350D01*
X013350Y005600D01*
X011850Y007100D01*
X007600Y007100D01*
X006100Y005600D01*
X005850Y002350D01*
X005880Y002348D01*
X005910Y002343D01*
X005939Y002334D01*
X005966Y002321D01*
X005992Y002306D01*
X006016Y002287D01*
X006037Y002266D01*
X006056Y002242D01*
X006071Y002216D01*
X006084Y002189D01*
X006093Y002160D01*
X006098Y002130D01*
X006100Y002100D01*
X006100Y001100D01*
X005100Y000100D01*
X000600Y000100D01*
X000556Y000102D01*
X000513Y000108D01*
X000471Y000117D01*
X000429Y000130D01*
X000389Y000147D01*
X000350Y000167D01*
X000313Y000190D01*
X000279Y000217D01*
X000246Y000246D01*
X000217Y000279D01*
X000190Y000313D01*
X000167Y000350D01*
X000147Y000389D01*
X000130Y000429D01*
X000117Y000471D01*
X000108Y000513D01*
X000102Y000556D01*
X000100Y000600D01*
X002850Y013350D02*
X002848Y013394D01*
X002842Y013437D01*
X002833Y013479D01*
X002820Y013521D01*
X002803Y013561D01*
X002783Y013600D01*
X002760Y013637D01*
X002733Y013671D01*
X002704Y013704D01*
X002671Y013733D01*
X002637Y013760D01*
X002600Y013783D01*
X002561Y013803D01*
X002521Y013820D01*
X002479Y013833D01*
X002437Y013842D01*
X002394Y013848D01*
X002350Y013850D01*
X002832Y023667D02*
X002834Y023693D01*
X002840Y023719D01*
X002850Y023744D01*
X002863Y023767D01*
X002879Y023787D01*
X002899Y023805D01*
X002921Y023820D01*
X002944Y023832D01*
X002970Y023840D01*
X002996Y023844D01*
X003022Y023844D01*
X003048Y023840D01*
X003074Y023832D01*
X003098Y023820D01*
X003119Y023805D01*
X003139Y023787D01*
X003155Y023767D01*
X003168Y023744D01*
X003178Y023719D01*
X003184Y023693D01*
X003186Y023667D01*
X003184Y023641D01*
X003178Y023615D01*
X003168Y023590D01*
X003155Y023567D01*
X003139Y023547D01*
X003119Y023529D01*
X003097Y023514D01*
X003074Y023502D01*
X003048Y023494D01*
X003022Y023490D01*
X002996Y023490D01*
X002970Y023494D01*
X002944Y023502D01*
X002920Y023514D01*
X002899Y023529D01*
X002879Y023547D01*
X002863Y023567D01*
X002850Y023590D01*
X002840Y023615D01*
X002834Y023641D01*
X002832Y023667D01*
X004014Y024933D02*
X004016Y024959D01*
X004022Y024985D01*
X004032Y025010D01*
X004045Y025033D01*
X004061Y025053D01*
X004081Y025071D01*
X004103Y025086D01*
X004126Y025098D01*
X004152Y025106D01*
X004178Y025110D01*
X004204Y025110D01*
X004230Y025106D01*
X004256Y025098D01*
X004280Y025086D01*
X004301Y025071D01*
X004321Y025053D01*
X004337Y025033D01*
X004350Y025010D01*
X004360Y024985D01*
X004366Y024959D01*
X004368Y024933D01*
X004366Y024907D01*
X004360Y024881D01*
X004350Y024856D01*
X004337Y024833D01*
X004321Y024813D01*
X004301Y024795D01*
X004279Y024780D01*
X004256Y024768D01*
X004230Y024760D01*
X004204Y024756D01*
X004178Y024756D01*
X004152Y024760D01*
X004126Y024768D01*
X004102Y024780D01*
X004081Y024795D01*
X004061Y024813D01*
X004045Y024833D01*
X004032Y024856D01*
X004022Y024881D01*
X004016Y024907D01*
X004014Y024933D01*
X008100Y029350D02*
X008104Y029430D01*
X008105Y029510D01*
X008101Y029590D01*
X008093Y029669D01*
X008082Y029749D01*
X008067Y029827D01*
X008047Y029905D01*
X008024Y029981D01*
X007998Y030057D01*
X007967Y030131D01*
X007933Y030203D01*
X007896Y030274D01*
X007855Y030343D01*
X007811Y030409D01*
X007763Y030474D01*
X007713Y030536D01*
X007659Y030595D01*
X007603Y030652D01*
X007544Y030706D01*
X007482Y030757D01*
X007418Y030805D01*
X007351Y030849D01*
X007283Y030891D01*
X007212Y030929D01*
X007140Y030963D01*
X007066Y030994D01*
X006991Y031021D01*
X006915Y031045D01*
X006837Y031064D01*
X006759Y031080D01*
X006680Y031092D01*
X006600Y031100D01*
X007973Y035788D02*
X007975Y035813D01*
X007981Y035837D01*
X007990Y035859D01*
X008003Y035880D01*
X008019Y035899D01*
X008038Y035915D01*
X008059Y035928D01*
X008081Y035937D01*
X008105Y035943D01*
X008130Y035945D01*
X008155Y035943D01*
X008179Y035937D01*
X008201Y035928D01*
X008222Y035915D01*
X008241Y035899D01*
X008257Y035880D01*
X008270Y035859D01*
X008279Y035837D01*
X008285Y035813D01*
X008287Y035788D01*
X008285Y035763D01*
X008279Y035739D01*
X008270Y035717D01*
X008257Y035696D01*
X008241Y035677D01*
X008222Y035661D01*
X008201Y035648D01*
X008179Y035639D01*
X008155Y035633D01*
X008130Y035631D01*
X008105Y035633D01*
X008081Y035639D01*
X008059Y035648D01*
X008038Y035661D01*
X008019Y035677D01*
X008003Y035696D01*
X007990Y035717D01*
X007981Y035739D01*
X007975Y035763D01*
X007973Y035788D01*
X011123Y035788D02*
X011125Y035813D01*
X011131Y035837D01*
X011140Y035859D01*
X011153Y035880D01*
X011169Y035899D01*
X011188Y035915D01*
X011209Y035928D01*
X011231Y035937D01*
X011255Y035943D01*
X011280Y035945D01*
X011305Y035943D01*
X011329Y035937D01*
X011351Y035928D01*
X011372Y035915D01*
X011391Y035899D01*
X011407Y035880D01*
X011420Y035859D01*
X011429Y035837D01*
X011435Y035813D01*
X011437Y035788D01*
X011435Y035763D01*
X011429Y035739D01*
X011420Y035717D01*
X011407Y035696D01*
X011391Y035677D01*
X011372Y035661D01*
X011351Y035648D01*
X011329Y035639D01*
X011305Y035633D01*
X011280Y035631D01*
X011255Y035633D01*
X011231Y035639D01*
X011209Y035648D01*
X011188Y035661D01*
X011169Y035677D01*
X011153Y035696D01*
X011140Y035717D01*
X011131Y035739D01*
X011125Y035763D01*
X011123Y035788D01*
X012850Y031100D02*
X012774Y031098D01*
X012698Y031092D01*
X012623Y031083D01*
X012548Y031069D01*
X012474Y031052D01*
X012401Y031031D01*
X012329Y031007D01*
X012258Y030978D01*
X012189Y030947D01*
X012122Y030912D01*
X012057Y030873D01*
X011993Y030831D01*
X011932Y030786D01*
X011873Y030738D01*
X011817Y030687D01*
X011763Y030633D01*
X011712Y030577D01*
X011664Y030518D01*
X011619Y030457D01*
X011577Y030393D01*
X011538Y030328D01*
X011503Y030261D01*
X011472Y030192D01*
X011443Y030121D01*
X011419Y030049D01*
X011398Y029976D01*
X011381Y029902D01*
X011367Y029827D01*
X011358Y029752D01*
X011352Y029676D01*
X011350Y029600D01*
X011157Y023300D02*
X011159Y023335D01*
X011165Y023370D01*
X011175Y023404D01*
X011188Y023437D01*
X011205Y023468D01*
X011226Y023496D01*
X011249Y023523D01*
X011276Y023546D01*
X011304Y023567D01*
X011335Y023584D01*
X011368Y023597D01*
X011402Y023607D01*
X011437Y023613D01*
X011472Y023615D01*
X011507Y023613D01*
X011542Y023607D01*
X011576Y023597D01*
X011609Y023584D01*
X011640Y023567D01*
X011668Y023546D01*
X011695Y023523D01*
X011718Y023496D01*
X011739Y023468D01*
X011756Y023437D01*
X011769Y023404D01*
X011779Y023370D01*
X011785Y023335D01*
X011787Y023300D01*
X011785Y023265D01*
X011779Y023230D01*
X011769Y023196D01*
X011756Y023163D01*
X011739Y023132D01*
X011718Y023104D01*
X011695Y023077D01*
X011668Y023054D01*
X011640Y023033D01*
X011609Y023016D01*
X011576Y023003D01*
X011542Y022993D01*
X011507Y022987D01*
X011472Y022985D01*
X011437Y022987D01*
X011402Y022993D01*
X011368Y023003D01*
X011335Y023016D01*
X011304Y023033D01*
X011276Y023054D01*
X011249Y023077D01*
X011226Y023104D01*
X011205Y023132D01*
X011188Y023163D01*
X011175Y023196D01*
X011165Y023230D01*
X011159Y023265D01*
X011157Y023300D01*
X007613Y023300D02*
X007615Y023335D01*
X007621Y023370D01*
X007631Y023404D01*
X007644Y023437D01*
X007661Y023468D01*
X007682Y023496D01*
X007705Y023523D01*
X007732Y023546D01*
X007760Y023567D01*
X007791Y023584D01*
X007824Y023597D01*
X007858Y023607D01*
X007893Y023613D01*
X007928Y023615D01*
X007963Y023613D01*
X007998Y023607D01*
X008032Y023597D01*
X008065Y023584D01*
X008096Y023567D01*
X008124Y023546D01*
X008151Y023523D01*
X008174Y023496D01*
X008195Y023468D01*
X008212Y023437D01*
X008225Y023404D01*
X008235Y023370D01*
X008241Y023335D01*
X008243Y023300D01*
X008241Y023265D01*
X008235Y023230D01*
X008225Y023196D01*
X008212Y023163D01*
X008195Y023132D01*
X008174Y023104D01*
X008151Y023077D01*
X008124Y023054D01*
X008096Y023033D01*
X008065Y023016D01*
X008032Y023003D01*
X007998Y022993D01*
X007963Y022987D01*
X007928Y022985D01*
X007893Y022987D01*
X007858Y022993D01*
X007824Y023003D01*
X007791Y023016D01*
X007760Y023033D01*
X007732Y023054D01*
X007705Y023077D01*
X007682Y023104D01*
X007661Y023132D01*
X007644Y023163D01*
X007631Y023196D01*
X007621Y023230D01*
X007615Y023265D01*
X007613Y023300D01*
X014867Y024958D02*
X014869Y024978D01*
X014875Y024998D01*
X014884Y025016D01*
X014897Y025033D01*
X014912Y025046D01*
X014930Y025056D01*
X014950Y025063D01*
X014970Y025066D01*
X014990Y025065D01*
X015010Y025060D01*
X015029Y025052D01*
X015046Y025040D01*
X015060Y025025D01*
X015071Y025007D01*
X015079Y024988D01*
X015083Y024968D01*
X015083Y024948D01*
X015079Y024928D01*
X015071Y024909D01*
X015060Y024891D01*
X015046Y024876D01*
X015029Y024864D01*
X015010Y024856D01*
X014990Y024851D01*
X014970Y024850D01*
X014950Y024853D01*
X014930Y024860D01*
X014912Y024870D01*
X014897Y024883D01*
X014884Y024900D01*
X014875Y024918D01*
X014869Y024938D01*
X014867Y024958D01*
X015980Y023845D02*
X015982Y023865D01*
X015988Y023885D01*
X015997Y023903D01*
X016010Y023920D01*
X016025Y023933D01*
X016043Y023943D01*
X016063Y023950D01*
X016083Y023953D01*
X016103Y023952D01*
X016123Y023947D01*
X016142Y023939D01*
X016159Y023927D01*
X016173Y023912D01*
X016184Y023894D01*
X016192Y023875D01*
X016196Y023855D01*
X016196Y023835D01*
X016192Y023815D01*
X016184Y023796D01*
X016173Y023778D01*
X016159Y023763D01*
X016142Y023751D01*
X016123Y023743D01*
X016103Y023738D01*
X016083Y023737D01*
X016063Y023740D01*
X016043Y023747D01*
X016025Y023757D01*
X016010Y023770D01*
X015997Y023787D01*
X015988Y023805D01*
X015982Y023825D01*
X015980Y023845D01*
D11*
X010224Y008369D03*
X009850Y007542D03*
X009476Y008369D03*
D12*
X008413Y008400D03*
X008413Y007800D03*
X011225Y007863D03*
X011225Y008463D03*
X012500Y014000D03*
X012500Y014600D03*
X015555Y012600D03*
X016145Y012600D03*
X018055Y012600D03*
X018645Y012600D03*
X014645Y002850D03*
X014055Y002850D03*
X018305Y000850D03*
X018895Y000850D03*
X006950Y014000D03*
X006950Y014600D03*
X003895Y012600D03*
X003305Y012600D03*
X001395Y012600D03*
X000805Y012600D03*
X004805Y002850D03*
X005395Y002850D03*
X001145Y000850D03*
X000555Y000850D03*
X005500Y025250D03*
X006100Y025250D03*
X007305Y026850D03*
X007895Y026850D03*
X008700Y026750D03*
X008700Y027350D03*
X009405Y026550D03*
X009995Y026550D03*
X012017Y036288D03*
X012608Y036288D03*
X007545Y036350D03*
X006955Y036350D03*
D13*
X007863Y016550D03*
X007863Y016050D03*
X007863Y015550D03*
X007863Y015050D03*
X007863Y014550D03*
X007863Y014050D03*
X007863Y013550D03*
X007863Y013050D03*
X007863Y012550D03*
X007863Y012050D03*
X011563Y012050D03*
X011563Y012550D03*
X011563Y013050D03*
X011563Y013550D03*
X011563Y014050D03*
X011563Y014550D03*
X011563Y015050D03*
X011563Y015550D03*
X011563Y016050D03*
X011563Y016550D03*
D14*
X007785Y026250D03*
X007115Y026250D03*
X004685Y026600D03*
X004015Y026600D03*
G36*
X006890Y032655D02*
X007169Y032376D01*
X006864Y032071D01*
X006585Y032350D01*
X006890Y032655D01*
G37*
G36*
X006416Y033129D02*
X006695Y032850D01*
X006390Y032545D01*
X006111Y032824D01*
X006416Y033129D01*
G37*
G36*
X006740Y033395D02*
X006461Y033674D01*
X006766Y033979D01*
X007045Y033700D01*
X006740Y033395D01*
G37*
G36*
X007214Y032921D02*
X006935Y033200D01*
X007240Y033505D01*
X007519Y033226D01*
X007214Y032921D01*
G37*
X006915Y037600D03*
X007585Y037600D03*
X011978Y037600D03*
X012647Y037600D03*
G36*
X012819Y033674D02*
X012540Y033395D01*
X012235Y033700D01*
X012514Y033979D01*
X012819Y033674D01*
G37*
G36*
X013169Y032824D02*
X012890Y032545D01*
X012585Y032850D01*
X012864Y033129D01*
X013169Y032824D01*
G37*
G36*
X012695Y032350D02*
X012416Y032071D01*
X012111Y032376D01*
X012390Y032655D01*
X012695Y032350D01*
G37*
G36*
X012345Y033200D02*
X012066Y032921D01*
X011761Y033226D01*
X012040Y033505D01*
X012345Y033200D01*
G37*
D15*
X009688Y035375D03*
X009688Y037500D03*
D16*
G36*
X003809Y025505D02*
X004449Y026145D01*
X004895Y025699D01*
X004255Y025059D01*
X003809Y025505D01*
G37*
G36*
X002055Y023751D02*
X002695Y024391D01*
X003141Y023945D01*
X002501Y023305D01*
X002055Y023751D01*
G37*
G36*
X006809Y009255D02*
X007449Y009895D01*
X007895Y009449D01*
X007255Y008809D01*
X006809Y009255D01*
G37*
G36*
X005055Y007501D02*
X005695Y008141D01*
X006141Y007695D01*
X005501Y007055D01*
X005055Y007501D01*
G37*
X004715Y001100D03*
X002235Y001100D03*
G36*
X012195Y008821D02*
X011555Y009461D01*
X012001Y009907D01*
X012641Y009267D01*
X012195Y008821D01*
G37*
G36*
X013949Y007068D02*
X013309Y007708D01*
X013755Y008154D01*
X014395Y007514D01*
X013949Y007068D01*
G37*
X014735Y001163D03*
X017215Y001163D03*
G36*
X016755Y024329D02*
X017395Y023689D01*
X016949Y023243D01*
X016309Y023883D01*
X016755Y024329D01*
G37*
G36*
X015001Y026082D02*
X015641Y025442D01*
X015195Y024996D01*
X014555Y025636D01*
X015001Y026082D01*
G37*
D17*
X017038Y017965D03*
X017038Y015485D03*
X002350Y015485D03*
X002350Y017965D03*
D18*
X001100Y014185D03*
X001100Y013515D03*
X003600Y013515D03*
X003600Y014185D03*
X003350Y003185D03*
X003350Y002515D03*
X004100Y002515D03*
X004100Y003185D03*
X013100Y024515D03*
X013100Y025185D03*
X015850Y014185D03*
X015850Y013515D03*
X018350Y013515D03*
X018350Y014185D03*
X016100Y003185D03*
X016100Y002515D03*
X015350Y002515D03*
X015350Y003185D03*
D19*
X011190Y031440D03*
X010690Y031440D03*
X010190Y031440D03*
X009690Y031440D03*
X009190Y031440D03*
X008690Y031440D03*
X008190Y031440D03*
X008190Y033860D03*
X008690Y033860D03*
X009190Y033860D03*
X009690Y033860D03*
X010190Y033860D03*
X010690Y033860D03*
X011190Y033860D03*
D20*
X006362Y026974D03*
X006362Y026600D03*
X006362Y026226D03*
X005338Y026226D03*
X005338Y026974D03*
M02*
